 http://www.shotpix.com/images/18231211812212069278.jpg


Release Title: Maroon 5 - Daylight (2012)

A soul shatteringly sweet video. Believe me when I say, you haven't seen anything this uplifting in a long long time.


                              1080p Full HD MP4 Video
                                       +
                              128 Kbps/VBR M4A Audio

General
Complete name                  : Maroon 5 - Daylight (1080p) x264 [VX] [P2PDL].mp4
Format                         : MPEG-4
Format profile                 : Base Media / Version 2
Codec ID                       : mp42
File size                      : 91.8 MiB
Duration                       : 9mn 34s

Video
ID                             : 1
Format                         : AVC
Format/Info                    : Advanced Video Codec
Format profile                 : High@L5.0
Width                          : 1 920 pixels
Height                         : 1 080 pixels
Display aspect ratio           : 16:9
Frame rate mode                : Constant
Frame rate                     : 29.970 fps
Color space                    : YUV
Chroma subsampling             : 4:2:0
Bit depth                      : 8 bits
Scan type                      : Progressive
Bits/(Pixel*Frame)             : 0.019
Stream size                    : 82.7 MiB (90%)
Writing library                : x264 core 128


Audio
ID                             : 2
Format                         : AAC
Format/Info                    : Advanced Audio Codec
Format profile                 : LC
Codec ID                       : 40
Duration                       : 9mn 34s
Bit rate mode                  : Variable
Bit rate                       : 128 Kbps
Maximum bit rate               : 158 Kbps
Channel(s)                     : 2 channels
Channel positions              : Front: L R
Sampling rate                  : 48.0 KHz
Compression mode               : Lossy
Stream size                    : 8.77 MiB (10%)


Subtitles                      : No

Screens:
 
http://www.shotpix.com/images/78758964078253098347.jpg 
http://www.shotpix.com/images/57254308949289077364.jpg

Thumbs:
 
http://www.shotpix.com/images/26673342547897346853.jpg

------------------------------------------------------------------------

Notes:

* Recommended to use latest version VLC Media Player.
* Install shark007 codecs in case of any kind of problem in playback (For non-VLC Media Player users).
* Alternatively, install Core AVC codecs, the fastest decoder that there is coupled with Community Center Codec Pack and play on Windows Media Player Classic.

Greets to: VYTO, a2zRG, staff members at ExtraTorrent, TPB,KAT, 1337x, PublicHD, Ahashare, TorrentMafia, BTScene, P2PDL, and all others

Encoder Notes: Looking For Early Access To Anything You Can Provide DVDScr, R5, DVDRips, BluRay, Direct Audio, Early Music
Releases, Seedboxes, Links, Dedicated Servers anything u can provide, Advance / Promo CDs/DVDs. If You Got anything to
offer contact me at "prg@hush.com"

Facebook Fan Page: www . facebook . com / p2pdl